<svg width="400" height="300" xmlns="http://www.w3.org/2000/svg">
  <defs>
    <linearGradient id="coldGradient" x1="0%" y1="0%" x2="100%" y2="0%">
      <stop offset="0%" stop-color="#90caf9"/>
      <stop offset="100%" stop-color="#64b5f6"/>
    </linearGradient>
    <linearGradient id="wallGradient" x1="0%" y1="0%" x2="100%" y2="0%">
      <stop offset="0%" stop-color="#cfd8dc"/>
      <stop offset="100%" stop-color="#b0bec5"/>
    </linearGradient>
    <linearGradient id="boardGradient" x1="0%" y1="0%" x2="100%" y2="0%">
      <stop offset="0%" stop-color="#1976d2"/>
      <stop offset="100%" stop-color="#1565c0"/>
    </linearGradient>
    <linearGradient id="floorGradient" x1="0%" y1="0%" x2="100%" y2="0%">
      <stop offset="0%" stop-color="#90a4ae"/>
      <stop offset="100%" stop-color="#78909c"/>
    </linearGradient>
    <filter id="shadow" x="-20%" y="-20%" width="140%" height="140%">
      <feDropShadow dx="2" dy="2" stdDeviation="3" flood-opacity="0.3"/>
    </filter>
  </defs>

  <!-- Background -->
  <rect width="400" height="300" fill="#eceff1"/>
  
  <!-- Cold storage room -->
  <g filter="url(#shadow)">
    <!-- Back wall -->
    <rect x="50" y="70" width="300" height="180" fill="url(#wallGradient)"/>
    
    <!-- Floor with frost effect -->
    <rect x="50" y="250" width="300" height="15" fill="url(#floorGradient)"/>
    <rect x="50" y="250" width="300" height="5" fill="#e3f2fd" opacity="0.5"/>
    
    <!-- Ceiling -->
    <rect x="50" y="70" width="300" height="10" fill="url(#floorGradient)"/>
    
    <!-- Left wall with insulation panel exposed -->
    <g>
      <rect x="50" y="70" width="20" height="180" fill="url(#wallGradient)"/>
      <rect x="70" y="100" width="40" height="120" fill="url(#boardGradient)"/>
      <!-- Texture for insulation panel -->
      <g fill="#e3f2fd" opacity="0.5">
        <circle cx="80" cy="120" r="2"/>
        <circle cx="95" cy="130" r="1"/>
        <circle cx="85" cy="145" r="2"/>
        <circle cx="100" cy="160" r="1"/>
        <circle cx="75" cy="175" r="2"/>
        <circle cx="90" cy="190" r="1"/>
      </g>
    </g>
    
    <!-- Right wall with insulation panel exposed -->
    <g>
      <rect x="330" y="70" width="20" height="180" fill="url(#wallGradient)"/>
      <rect x="290" y="100" width="40" height="120" fill="url(#boardGradient)"/>
      <!-- Texture for insulation panel -->
      <g fill="#e3f2fd" opacity="0.5">
        <circle cx="300" cy="120" r="2"/>
        <circle cx="315" cy="130" r="1"/>
        <circle cx="305" cy="145" r="2"/>
        <circle cx="320" cy="160" r="1"/>
        <circle cx="295" cy="175" r="2"/>
        <circle cx="310" cy="190" r="1"/>
      </g>
    </g>
    
    <!-- Cold storage door -->
    <rect x="160" y="150" width="80" height="100" fill="#90caf9" stroke="#1976d2" stroke-width="3" rx="5"/>
    <rect x="170" y="160" width="60" height="80" fill="#e3f2fd" stroke="#64b5f6" stroke-width="2"/>
    <circle cx="225" cy="200" r="5" fill="#ffc107" stroke="#f57c00" stroke-width="1"/>
  </g>
  
  <!-- Temperature indicator with frost -->
  <g transform="translate(130, 100)">
    <rect width="140" height="40" rx="5" fill="#fff" stroke="#1976d2" stroke-width="2"/>
    <text x="20" y="25" font-family="Arial" font-weight="bold" font-size="18" fill="#1976d2">-18°C / 0°F</text>
    <g fill="#e3f2fd" opacity="0.7">
      <circle cx="10" cy="10" r="3"/>
      <circle cx="130" cy="10" r="4"/>
      <circle cx="10" cy="30" r="4"/>
      <circle cx="130" cy="30" r="3"/>
    </g>
  </g>
  
  <!-- Frost/cold air visualization -->
  <g opacity="0.3">
    <path d="M120,120 Q140,110 160,120 Q180,130 200,120 Q220,110 240,120" stroke="#64b5f6" stroke-width="3" fill="none"/>
    <path d="M140,140 Q160,130 180,140 Q200,150 220,140" stroke="#64b5f6" stroke-width="2" fill="none"/>
    <path d="M160,160 Q180,150 200,160" stroke="#64b5f6" stroke-width="2" fill="none"/>
  </g>
  
  <!-- Label -->
  <rect x="10" y="10" width="130" height="30" rx="5" fill="#1565c0" filter="url(#shadow)"/>
  <text x="25" y="30" font-family="Arial" font-weight="bold" font-size="14" fill="white">Cold Storage</text>
</svg>