<svg width="400" height="300" xmlns="http://www.w3.org/2000/svg">
  <defs>
    <linearGradient id="oceanGradient" x1="0%" y1="0%" x2="0%" y2="100%">
      <stop offset="0%" stop-color="#64b5f6" stop-opacity="0.8"/>
      <stop offset="100%" stop-color="#1976d2" stop-opacity="1"/>
    </linearGradient>
    <linearGradient id="hullGradient" x1="0%" y1="0%" x2="100%" y2="0%">
      <stop offset="0%" stop-color="#1565c0"/>
      <stop offset="100%" stop-color="#0d47a1"/>
    </linearGradient>
    <linearGradient id="deckGradient" x1="0%" y1="0%" x2="100%" y2="0%">
      <stop offset="0%" stop-color="#e0e0e0"/>
      <stop offset="100%" stop-color="#bdbdbd"/>
    </linearGradient>
    <linearGradient id="insideGradient" x1="0%" y1="0%" x2="100%" y2="0%">
      <stop offset="0%" stop-color="#90caf9"/>
      <stop offset="100%" stop-color="#64b5f6"/>
    </linearGradient>
    <filter id="shadow" x="-20%" y="-20%" width="140%" height="140%">
      <feDropShadow dx="2" dy="2" stdDeviation="3" flood-opacity="0.3"/>
    </filter>
  </defs>

  <!-- Ocean background -->
  <rect width="400" height="300" fill="url(#oceanGradient)"/>
  
  <!-- Sky -->
  <rect width="400" height="100" fill="#bbdefb" opacity="0.7"/>
  
  <!-- Sun -->
  <circle cx="80" cy="40" r="20" fill="#ffeb3b" filter="url(#shadow)"/>
  
  <!-- Yacht/boat -->
  <g filter="url(#shadow)">
    <!-- Hull -->
    <path d="M100,200 L250,200 C270,200 290,180 290,160 L290,150 C290,140 280,130 270,130 L80,130 C70,130 60,140 60,150 L60,160 C60,180 80,200 100,200 Z" fill="url(#hullGradient)"/>
    
    <!-- Deck -->
    <rect x="80" y="130" width="190" height="10" rx="5" fill="url(#deckGradient)"/>
    
    <!-- Cabin -->
    <rect x="120" y="90" width="100" height="40" rx="5" fill="url(#deckGradient)"/>
    <rect x="130" y="100" width="20" height="20" rx="2" fill="#e3f2fd"/>
    <rect x="160" y="100" width="20" height="20" rx="2" fill="#e3f2fd"/>
    <rect x="190" y="100" width="20" height="20" rx="2" fill="#e3f2fd"/>
    
    <!-- Mast -->
    <rect x="170" y="40" width="6" height="90" fill="#757575"/>
    
    <!-- Sail -->
    <path d="M173,40 L173,110 L240,90 Z" fill="#fff" opacity="0.9"/>
    
    <!-- Insulation visible -->
    <g>
      <rect x="220" y="150" width="40" height="30" fill="url(#insideGradient)" opacity="0.8"/>
      <rect x="225" y="155" width="30" height="20" fill="#1565c0" opacity="0.7"/>
    </g>
  </g>
  
  <!-- Water ripples -->
  <g opacity="0.5" stroke="#fff" fill="none">
    <path d="M50,220 Q70,210 90,220 Q110,230 130,220" stroke-width="2"/>
    <path d="M150,230 Q170,220 190,230 Q210,240 230,230" stroke-width="2"/>
    <path d="M250,220 Q270,210 290,220 Q310,230 330,220" stroke-width="2"/>
  </g>
  
  <!-- Label -->
  <rect x="10" y="10" width="170" height="30" rx="5" fill="#1565c0" filter="url(#shadow)"/>
  <text x="25" y="30" font-family="Arial" font-weight="bold" font-size="14" fill="white">Marine Applications</text>
</svg>