<svg width="400" height="300" xmlns="http://www.w3.org/2000/svg">
  <defs>
    <linearGradient id="containerWall" x1="0%" y1="0%" x2="0%" y2="100%">
      <stop offset="0%" stop-color="#78909c"/>
      <stop offset="100%" stop-color="#546e7a"/>
    </linearGradient>
    <linearGradient id="coating" x1="0%" y1="0%" x2="100%" y2="0%">
      <stop offset="0%" stop-color="#388e3c" stop-opacity="0.7"/>
      <stop offset="100%" stop-color="#43a047" stop-opacity="0.9"/>
    </linearGradient>
    <linearGradient id="liquid" x1="0%" y1="0%" x2="0%" y2="100%">
      <stop offset="0%" stop-color="#e65100" stop-opacity="0.6"/>
      <stop offset="100%" stop-color="#ef6c00" stop-opacity="0.8"/>
    </linearGradient>
    <filter id="shadow" x="-20%" y="-20%" width="140%" height="140%">
      <feDropShadow dx="2" dy="2" stdDeviation="2" flood-opacity="0.3"/>
    </filter>
    <filter id="inner-shadow" x="-20%" y="-20%" width="140%" height="140%">
      <feOffset dx="2" dy="2"/>
      <feGaussianBlur stdDeviation="2"/>
      <feComposite operator="out" in="SourceGraphic"/>
      <feColorMatrix type="matrix" values="0 0 0 0 0   0 0 0 0 0   0 0 0 0 0   0 0 0 0.3 0"/>
      <feBlend mode="normal" in2="SourceGraphic" result="shadow"/>
    </filter>
  </defs>
  
  <!-- Background -->
  <rect width="400" height="300" fill="#f5f5f5"/>
  
  <!-- Floor -->
  <rect x="0" y="250" width="400" height="50" fill="#e0e0e0"/>
  
  <!-- Containment Basin -->
  <g filter="url(#shadow)">
    <path d="M50,100 L350,100 L350,250 L50,250 Z" fill="url(#containerWall)"/>
    <path d="M70,120 L330,120 L330,250 L70,250 Z" fill="#455a64"/>
  </g>
  
  <!-- Coating Layer Along Walls -->
  <g>
    <path d="M70,120 L330,120 L330,250 L70,250 Z" fill="none" stroke="url(#coating)" stroke-width="6" stroke-linejoin="round" stroke-dasharray="0"/>
  </g>
  
  <!-- Liquid in Containment -->
  <path d="M70,210 L330,210 L330,250 L70,250 Z" fill="url(#liquid)">
    <!-- Liquid Wave Animation -->
    <animate 
      attributeName="d" 
      values="M70,210 L330,210 L330,250 L70,250 Z;
              M70,208 L180,212 L250,209 L330,211 L330,250 L70,250 Z;
              M70,210 L330,210 L330,250 L70,250 Z" 
      dur="5s" 
      repeatCount="indefinite"/>
  </path>
  
  <!-- Tank -->
  <g>
    <!-- Tank Body -->
    <rect x="150" y="30" width="100" height="120" rx="5" fill="#90a4ae" filter="url(#shadow)"/>
    <rect x="155" y="35" width="90" height="110" rx="3" fill="#78909c"/>
    
    <!-- Tank Top -->
    <ellipse cx="200" cy="30" rx="55" ry="10" fill="#b0bec5"/>
    <ellipse cx="200" cy="30" rx="45" ry="7" fill="#90a4ae"/>
    
    <!-- Tank Bottom Outlet -->
    <rect x="190" y="150" width="20" height="15" fill="#546e7a"/>
    
    <!-- Leaking Drips -->
    <g>
      <path d="M200,165 L200,210" stroke="#ef6c00" stroke-width="2" stroke-dasharray="2,3" opacity="0.7">
        <animate attributeName="opacity" values="0.7;0.9;0.7" dur="2s" repeatCount="indefinite"/>
      </path>
      
      <circle cx="200" cy="190" r="3" fill="#ef6c00" opacity="0.6">
        <animate attributeName="cy" values="175;210;175" dur="2s" begin="0s" repeatCount="indefinite"/>
        <animate attributeName="opacity" values="0.9;0.6;0.9" dur="2s" begin="0s" repeatCount="indefinite"/>
      </circle>
      
      <circle cx="200" cy="180" r="2" fill="#ef6c00" opacity="0.8">
        <animate attributeName="cy" values="185;210;185" dur="3s" begin="1s" repeatCount="indefinite"/>
        <animate attributeName="opacity" values="0.8;0.6;0.8" dur="3s" begin="1s" repeatCount="indefinite"/>
      </circle>
    </g>
    
    <!-- Tank Details -->
    <rect x="170" y="50" width="60" height="10" rx="2" fill="#546e7a"/>
    <rect x="170" y="70" width="60" height="10" rx="2" fill="#546e7a"/>
    <rect x="170" y="90" width="60" height="10" rx="2" fill="#546e7a"/>
    <rect x="170" y="110" width="60" height="10" rx="2" fill="#546e7a"/>
    
    <!-- Hazard Label -->
    <rect x="185" y="50" width="30" height="30" fill="#ffb300" opacity="0.9"/>
    <text x="200" y="65" font-family="Arial" font-size="10" text-anchor="middle" fill="#000">!</text>
    <text x="200" y="75" font-family="Arial" font-size="6" text-anchor="middle" fill="#000">HAZARD</text>
  </g>
  
  <!-- Chemical-Resistance Indicators -->
  <g>
    <circle cx="60" cy="160" r="10" fill="#4caf50" opacity="0.8"/>
    <path d="M55,160 L59,164 L65,156" stroke="white" stroke-width="2" fill="none"/>
    <text x="80" y="165" font-family="Arial" font-size="10" fill="#424242">Chemical-Resistant</text>
  </g>
  
  <g>
    <circle cx="60" cy="185" r="10" fill="#4caf50" opacity="0.8"/>
    <path d="M55,185 L59,189 L65,181" stroke="white" stroke-width="2" fill="none"/>
    <text x="80" y="190" font-family="Arial" font-size="10" fill="#424242">Impact-Resistant</text>
  </g>
  
  <!-- Title -->
  <rect x="75" y="15" width="250" height="35" rx="5" fill="#388e3c" filter="url(#shadow)"/>
  <text x="200" y="38" font-family="Arial" font-weight="bold" font-size="16" text-anchor="middle" fill="white">Secondary Containment System</text>
</svg>