<svg width="400" height="300" xmlns="http://www.w3.org/2000/svg">
  <defs>
    <linearGradient id="wall" x1="0%" y1="0%" x2="0%" y2="100%">
      <stop offset="0%" stop-color="#e0e0e0"/>
      <stop offset="100%" stop-color="#bdbdbd"/>
    </linearGradient>
    <linearGradient id="coating" x1="0%" y1="0%" x2="100%" y2="0%">
      <stop offset="0%" stop-color="#ff9a00" stop-opacity="0.6"/>
      <stop offset="100%" stop-color="#ff9a00" stop-opacity="0.8"/>
    </linearGradient>
    <linearGradient id="water" x1="0%" y1="0%" x2="0%" y2="100%">
      <stop offset="0%" stop-color="#81d4fa" stop-opacity="0.6"/>
      <stop offset="100%" stop-color="#29b6f6" stop-opacity="0.8"/>
    </linearGradient>
    <filter id="drop-shadow" x="-20%" y="-20%" width="140%" height="140%">
      <feDropShadow dx="2" dy="2" stdDeviation="2" flood-opacity="0.3"/>
    </filter>
    <clipPath id="water-clip">
      <rect x="0" y="200" width="400" height="100"/>
    </clipPath>
    <clipPath id="splash-clip">
      <path d="M210,200 Q230,150 250,200 Z"/>
    </clipPath>
  </defs>
  
  <!-- Background -->
  <rect width="400" height="300" fill="#f5f5f5"/>
  
  <!-- Foundation wall -->
  <rect x="50" y="50" width="300" height="150" fill="url(#wall)" rx="1" filter="url(#drop-shadow)"/>
  
  <!-- Waterproof coating animation -->
  <g>
    <rect x="50" y="50" width="300" height="150" fill="url(#coating)" rx="1" opacity="0.8">
      <animate 
        attributeName="height" 
        from="0" 
        to="150" 
        dur="4s" 
        begin="0s" 
        fill="freeze" 
        repeatCount="1"/>
    </rect>
    
    <!-- Coating drips -->
    <g>
      <path d="M100,200 L100,230 Q100,240 110,240 Q120,240 120,230 L120,200 Z" fill="url(#coating)">
        <animate 
          attributeName="d" 
          from="M100,200 L100,200 Q100,200 110,200 Q120,200 120,200 L120,200 Z" 
          to="M100,200 L100,230 Q100,240 110,240 Q120,240 120,230 L120,200 Z" 
          dur="3s" 
          begin="2s" 
          fill="freeze" 
          repeatCount="1"/>
      </path>
      
      <path d="M250,200 L250,220 Q250,230 260,230 Q270,230 270,220 L270,200 Z" fill="url(#coating)">
        <animate 
          attributeName="d" 
          from="M250,200 L250,200 Q250,200 260,200 Q270,200 270,200 L270,200 Z" 
          to="M250,200 L250,220 Q250,230 260,230 Q270,230 270,220 L270,200 Z" 
          dur="2.5s" 
          begin="2.2s" 
          fill="freeze" 
          repeatCount="1"/>
      </path>
    </g>
  </g>
  
  <!-- Water Level and Waves -->
  <g clip-path="url(#water-clip)">
    <rect x="0" y="200" width="400" height="100" fill="url(#water)"/>
    <path d="M0,220 Q30,205 60,220 Q90,235 120,220 Q150,205 180,220 Q210,235 240,220 Q270,205 300,220 Q330,235 360,220 Q390,205 420,220 L420,240 L0,240 Z" fill="#29b6f6" opacity="0.3">
      <animate 
        attributeName="d" 
        from="M0,220 Q30,205 60,220 Q90,235 120,220 Q150,205 180,220 Q210,235 240,220 Q270,205 300,220 Q330,235 360,220 Q390,205 420,220 L420,240 L0,240 Z" 
        to="M0,220 Q30,235 60,220 Q90,205 120,220 Q150,235 180,220 Q210,205 240,220 Q270,235 300,220 Q330,205 360,220 Q390,235 420,220 L420,240 L0,240 Z" 
        dur="5s" 
        begin="0s" 
        repeatCount="indefinite"/>
    </path>
  </g>
  
  <!-- Water Splash -->
  <g clip-path="url(#splash-clip)">
    <circle cx="230" cy="190" r="15" fill="url(#water)" opacity="0.6">
      <animate 
        attributeName="r" 
        values="0;15;10;15;0" 
        dur="5s" 
        begin="2s" 
        repeatCount="indefinite"/>
    </circle>
  </g>
  
  <!-- Droplets bouncing off -->
  <g>
    <circle cx="215" cy="170" r="3" fill="#29b6f6" opacity="0">
      <animate 
        attributeName="opacity" 
        values="0;0.8;0" 
        dur="2s" 
        begin="2.5s" 
        repeatCount="indefinite"/>
      <animate 
        attributeName="cy" 
        values="190;160;190" 
        dur="2s" 
        begin="2.5s" 
        repeatCount="indefinite"/>
    </circle>
    
    <circle cx="245" cy="165" r="2" fill="#29b6f6" opacity="0">
      <animate 
        attributeName="opacity" 
        values="0;0.6;0" 
        dur="2.5s" 
        begin="2.7s" 
        repeatCount="indefinite"/>
      <animate 
        attributeName="cy" 
        values="190;160;200" 
        dur="2.5s" 
        begin="2.7s" 
        repeatCount="indefinite"/>
    </circle>
  </g>
  
  <!-- Label -->
  <rect x="100" y="20" width="200" height="30" rx="5" fill="#ff9a00" filter="url(#drop-shadow)"/>
  <text x="120" y="42" font-family="Arial" font-weight="bold" font-size="16" fill="white">Waterproofing System</text>
  
  <!-- Arrows indicating waterproofing -->
  <g>
    <path d="M20,120 L40,120 M30,110 L40,120 L30,130" stroke="#ff9a00" stroke-width="3" fill="none"/>
    <text x="15" y="100" font-family="Arial" font-size="12" fill="#424242">Water</text>
    <text x="5" y="115" font-family="Arial" font-size="12" fill="#424242">Pressure</text>
  </g>
  
  <g>
    <path d="M380,120 L360,120 M370,110 L360,120 L370,130" stroke="#ff9a00" stroke-width="3" fill="none"/>
    <text x="350" y="100" font-family="Arial" font-size="12" text-anchor="end" fill="#424242">Moisture</text>
    <text x="350" y="115" font-family="Arial" font-size="12" text-anchor="end" fill="#424242">Barrier</text>
  </g>
</svg>